<svg xmlns="http://www.w3.org/2000/svg" width="100" height="100" viewBox="0 0 100 100">
  <defs>
    <style>
      .cls-1, .cls-2 {
        stroke: #6d7993;
        fill: #6d7993;
        fill-rule: evenodd;
      }

      .cls-1 {
        stroke-width: 0.73px;
      }

      .cls-2 {
        stroke-width: 0.73px;
      }
    </style>
  </defs>
  <path id="speech" class="cls-1" d="M44.231,64.63H35.9V59.294A4.062,4.062,0,0,0,32.133,55H6.769A4.062,4.062,0,0,0,3,59.294V75.75a4.061,4.061,0,0,0,3.769,4.293H8.7v4.35a0.986,0.986,0,0,0,.537.907,0.767,0.767,0,0,0,.321.071,0.811,0.811,0,0,0,.619-0.3l4.25-5.029H15.1v5.337a4.062,4.062,0,0,0,3.769,4.293H36.574l4.25,5.028a0.811,0.811,0,0,0,.619.3,0.767,0.767,0,0,0,.321-0.071,0.986,0.986,0,0,0,.537-0.907v-4.35h1.93A4.062,4.062,0,0,0,48,85.379V68.923A4.061,4.061,0,0,0,44.231,64.63ZM15.1,68.923v9.164H14.061a0.811,0.811,0,0,0-.618.3l-3.027,3.581v-2.9a0.924,0.924,0,0,0-.858-0.978H6.769A2.212,2.212,0,0,1,4.717,75.75V59.294a2.212,2.212,0,0,1,2.053-2.339H32.133a2.212,2.212,0,0,1,2.053,2.339V64.63H18.867A4.062,4.062,0,0,0,15.1,68.923ZM46.284,85.379a2.212,2.212,0,0,1-2.053,2.338H41.442a0.924,0.924,0,0,0-.858.978v2.9l-3.027-3.581a0.811,0.811,0,0,0-.618-0.3H18.867a2.212,2.212,0,0,1-2.053-2.338V68.923a2.212,2.212,0,0,1,2.053-2.338H44.231a2.212,2.212,0,0,1,2.053,2.338V85.379h0Z"/>
  <path id="head" class="cls-1" d="M72.677,30.548l-3.564-5.9a2.252,2.252,0,0,1-.275-1.7L69.6,19.791a0.672,0.672,0,0,0,.019-0.159C69.621,11.564,61.69,5,51.942,5H47.767C36.867,5,28,12.339,28,21.36c0,4.514,1.31,8.248,2.576,11.858,1.3,3.7,2.643,7.533,2.643,12.33a0.792,0.792,0,0,0,.468.691l16.76,8.477a2.7,2.7,0,0,0,2.336.036,1.867,1.867,0,0,0,1.181-1.669V49.867c0-2.412,2.37-4.373,5.284-4.373h3.465c2.659,0,4.915-1.718,5.136-3.911l0.675-6.7,2.551-.845A2.851,2.851,0,0,0,72.8,32.585,2.15,2.15,0,0,0,72.677,30.548Zm-1.706,1.461a1.018,1.018,0,0,1-.625.526l-3.112,1.03a0.843,0.843,0,0,0-.612.685l-0.725,7.2a3.039,3.039,0,0,1-3.186,2.426H59.248c-3.993,0-7.241,2.688-7.241,5.993v3.216a0.284,0.284,0,0,1-.181.256,0.4,0.4,0,0,1-.358-0.005l-16.3-8.242c-0.08-4.811-1.42-8.629-2.716-12.326-1.285-3.663-2.5-7.123-2.5-11.407,0-8.128,7.989-14.74,17.809-14.74h4.175c8.637,0,15.67,5.794,15.722,12.933L66.919,22.63a3.633,3.633,0,0,0,.444,2.744l3.564,5.9A0.768,0.768,0,0,1,70.972,32.009ZM50.9,20.442a0.824,0.824,0,1,0,0-1.62H49.711a4.677,4.677,0,0,0-1.1-2.2l0.842-.7a0.715,0.715,0,0,0,0-1.145,1.128,1.128,0,0,0-1.384,0l-0.842.7a6.907,6.907,0,0,0-2.654-.913V13.585a1,1,0,0,0-1.957,0v0.982a6.912,6.912,0,0,0-2.654.913l-0.842-.7a1.128,1.128,0,0,0-1.384,0,0.715,0.715,0,0,0,0,1.145l0.842,0.7a4.674,4.674,0,0,0-1.1,2.2H36.285a0.824,0.824,0,1,0,0,1.62h1.187a4.676,4.676,0,0,0,1.1,2.2l-0.842.7a0.715,0.715,0,0,0,0,1.145,1.127,1.127,0,0,0,1.384,0l0.842-.7a6.907,6.907,0,0,0,2.654.913v0.982a1,1,0,0,0,1.957,0V24.7a6.911,6.911,0,0,0,2.654-.913l0.842,0.7a1.127,1.127,0,0,0,1.384,0,0.715,0.715,0,0,0,0-1.145l-0.842-.7a4.673,4.673,0,0,0,1.1-2.2H50.9Zm-7.306,2.7c-2.338,0-4.24-1.574-4.24-3.509s1.9-3.509,4.24-3.509,4.24,1.574,4.24,3.509S45.929,23.141,43.591,23.141Zm0-5.075A1.754,1.754,0,0,0,41.7,19.632a1.926,1.926,0,0,0,3.784,0A1.754,1.754,0,0,0,43.591,18.066Zm0,1.62a0.055,0.055,0,1,1,.065-0.054A0.06,0.06,0,0,1,43.591,19.686Zm16.7-4.319H60.108a3.092,3.092,0,0,0-.477-0.953l0.13-.108a0.715,0.715,0,0,0,0-1.145,1.128,1.128,0,0,0-1.384,0l-0.13.108a4.588,4.588,0,0,0-1.151-.4V12.721a1,1,0,0,0-1.957,0v0.152a4.586,4.586,0,0,0-1.151.4l-0.13-.108a1.127,1.127,0,0,0-1.384,0,0.715,0.715,0,0,0,0,1.145l0.13,0.108a3.092,3.092,0,0,0-.477.953H51.942a0.906,0.906,0,0,0-.978.81,0.906,0.906,0,0,0,.978.81h0.184a3.094,3.094,0,0,0,.477.953l-0.13.108a0.715,0.715,0,0,0,0,1.145,1.128,1.128,0,0,0,1.384,0l0.13-.108a4.592,4.592,0,0,0,1.151.4v0.152a1,1,0,0,0,1.957,0V19.479a4.594,4.594,0,0,0,1.151-.4l0.13,0.108a1.128,1.128,0,0,0,1.384,0,0.715,0.715,0,0,0,0-1.145l-0.13-.108a3.093,3.093,0,0,0,.477-0.953h0.184a0.906,0.906,0,0,0,.979-0.81A0.906,0.906,0,0,0,60.292,15.366Zm-4.175,2.592a2,2,0,0,1-2.153-1.782,2.191,2.191,0,0,1,4.306,0A2,2,0,0,1,56.117,17.958Zm2.515,5.156a1.1,1.1,0,0,0-1.337-.3l-0.2.094a3.27,3.27,0,0,0-1.047-.5V22.223a1,1,0,0,0-1.957,0v0.187a3.265,3.265,0,0,0-1.047.5l-0.2-.094a1.1,1.1,0,0,0-1.337.3,0.739,0.739,0,0,0,.358,1.106l0.2,0.093a2.113,2.113,0,0,0,0,1l-0.2.093a0.739,0.739,0,0,0-.358,1.106,1.031,1.031,0,0,0,.848.405,1.133,1.133,0,0,0,.488-0.109l0.2-.094a3.267,3.267,0,0,0,1.047.5v0.187a1,1,0,0,0,1.957,0V27.219a3.263,3.263,0,0,0,1.047-.5l0.2,0.094a1.134,1.134,0,0,0,.488.109,1.031,1.031,0,0,0,.848-0.405,0.739,0.739,0,0,0-.358-1.106l-0.2-.093a2.116,2.116,0,0,0,0-1l0.2-.093A0.739,0.739,0,0,0,58.632,23.114Zm-4.668,1.7a1.129,1.129,0,1,1,1.109.918A1.028,1.028,0,0,1,53.964,24.815Z"/>
  <path id="code" class="cls-2" d="M81.994,55.1l-1.524-.5a0.594,0.594,0,0,0-.578.073,0.935,0.935,0,0,0-.381.568L70.34,92.856a1.017,1.017,0,0,0,.062.714,0.838,0.838,0,0,0,.48.451l1.524,0.5a0.591,0.591,0,0,0,.578-0.073,0.935,0.935,0,0,0,.381-0.568l9.171-37.607a1.018,1.018,0,0,0-.062-0.714A0.839,0.839,0,0,0,81.994,55.1ZM68.251,62.445a1.009,1.009,0,0,0-.246-0.67l-1.23-1.456a0.694,0.694,0,0,0-1.131,0L54.188,73.893a1.036,1.036,0,0,0,0,1.34L65.645,88.807a0.695,0.695,0,0,0,1.131,0l1.23-1.456a1.036,1.036,0,0,0,0-1.34L58.343,74.563l9.662-11.448A1.008,1.008,0,0,0,68.251,62.445ZM98.687,73.892L87.23,60.318a0.694,0.694,0,0,0-1.131,0l-1.229,1.457a1.036,1.036,0,0,0,0,1.34l9.662,11.448L84.871,86.011a1.036,1.036,0,0,0,0,1.34L86.1,88.807a0.695,0.695,0,0,0,1.131,0L98.687,75.233A1.038,1.038,0,0,0,98.687,73.892Z"/>
</svg>
